<svg width="304" height="390" viewBox="0 0 304 390" fill="none" xmlns="http://www.w3.org/2000/svg">
<g filter="url(#filter0_i_673_417)">
<path fill-rule="evenodd" clip-rule="evenodd" d="M218 73H304V65H218V73ZM280 50L127.387 50C125.104 47.9462 122.773 45.9456 120.395 44L280 44V50ZM99.3698 29C106.716 33.5402 113.739 38.5544 120.395 44H28V50H127.387C167.056 85.6946 192 137.434 192 195C192 302.696 104.696 390 -3 390C-110.696 390 -198 302.696 -198 195C-198 87.3045 -110.696 0 -3 0C28.7111 0 58.6542 7.56942 85.1211 21H62V29H99.3698ZM99.3698 29L217 29V21L85.1211 21C89.992 23.4717 94.7451 26.1419 99.3698 29Z" fill="#0E4375"/>
</g>
<defs>
<filter id="filter0_i_673_417" x="-198" y="-15" width="502" height="405" filterUnits="userSpaceOnUse" color-interpolation-filters="sRGB">
<feFlood flood-opacity="0" result="BackgroundImageFix"/>
<feBlend mode="normal" in="SourceGraphic" in2="BackgroundImageFix" result="shape"/>
<feColorMatrix in="SourceAlpha" type="matrix" values="0 0 0 0 0 0 0 0 0 0 0 0 0 0 0 0 0 0 127 0" result="hardAlpha"/>
<feOffset dy="-15"/>
<feGaussianBlur stdDeviation="25"/>
<feComposite in2="hardAlpha" operator="arithmetic" k2="-1" k3="1"/>
<feColorMatrix type="matrix" values="0 0 0 0 0 0 0 0 0 0 0 0 0 0 0 0 0 0 1 0"/>
<feBlend mode="normal" in2="shape" result="effect1_innerShadow_673_417"/>
</filter>
</defs>
</svg>
