<svg width="100" height="100" viewBox="0 0 100 100" fill="none" xmlns="http://www.w3.org/2000/svg">
<mask id="mask0_627_410" style="mask-type:alpha" maskUnits="userSpaceOnUse" x="0" y="0" width="100" height="100">
<path d="M65 65C65 67.6522 63.9464 70.1957 62.0711 72.0711C60.1957 73.9464 57.6522 75 55 75H35V65H55V55H45V45H55V35H35V25H55C57.6522 25 60.1957 26.0536 62.0711 27.9289C63.9464 29.8043 65 32.3478 65 35V42.5C65 44.4891 64.2098 46.3968 62.8033 47.8033C61.3968 49.2098 59.4891 50 57.5 50C59.4891 50 61.3968 50.7902 62.8033 52.1967C64.2098 53.6032 65 55.5109 65 57.5V65ZM50 0C56.5661 0 63.0679 1.29329 69.1342 3.80602C75.2005 6.31876 80.7124 10.0017 85.3553 14.6447C89.9983 19.2876 93.6812 24.7995 96.194 30.8658C98.7067 36.9321 100 43.4339 100 50C100 63.2608 94.7322 75.9785 85.3553 85.3553C75.9785 94.7322 63.2608 100 50 100C43.4339 100 36.9321 98.7067 30.8658 96.194C24.7995 93.6812 19.2876 89.9983 14.6447 85.3553C5.26784 75.9785 0 63.2608 0 50C0 36.7392 5.26784 24.0215 14.6447 14.6447C24.0215 5.26784 36.7392 0 50 0ZM50 10C39.3913 10 29.2172 14.2143 21.7157 21.7157C14.2143 29.2172 10 39.3913 10 50C10 60.6087 14.2143 70.7828 21.7157 78.2843C29.2172 85.7857 39.3913 90 50 90C60.6087 90 70.7828 85.7857 78.2843 78.2843C85.7857 70.7828 90 60.6087 90 50C90 39.3913 85.7857 29.2172 78.2843 21.7157C70.7828 14.2143 60.6087 10 50 10Z" fill="white"/>
</mask>
<g mask="url(#mask0_627_410)">
<path d="M65 65C65 67.6522 63.9464 70.1957 62.0711 72.0711C60.1957 73.9464 57.6522 75 55 75H35V65H55V55H45V45H55V35H35V25H55C57.6522 25 60.1957 26.0536 62.0711 27.9289C63.9464 29.8043 65 32.3478 65 35V42.5C65 44.4891 64.2098 46.3968 62.8033 47.8033C61.3968 49.2098 59.4891 50 57.5 50C59.4891 50 61.3968 50.7902 62.8033 52.1967C64.2098 53.6032 65 55.5109 65 57.5V65ZM50 0C56.5661 0 63.0679 1.29329 69.1342 3.80602C75.2005 6.31876 80.7124 10.0017 85.3553 14.6447C89.9983 19.2876 93.6812 24.7995 96.194 30.8658C98.7067 36.9321 100 43.4339 100 50C100 63.2608 94.7322 75.9785 85.3553 85.3553C75.9785 94.7322 63.2608 100 50 100C43.4339 100 36.9321 98.7067 30.8658 96.194C24.7995 93.6812 19.2876 89.9983 14.6447 85.3553C5.26784 75.9785 0 63.2608 0 50C0 36.7392 5.26784 24.0215 14.6447 14.6447C24.0215 5.26784 36.7392 0 50 0ZM50 10C39.3913 10 29.2172 14.2143 21.7157 21.7157C14.2143 29.2172 10 39.3913 10 50C10 60.6087 14.2143 70.7828 21.7157 78.2843C29.2172 85.7857 39.3913 90 50 90C60.6087 90 70.7828 85.7857 78.2843 78.2843C85.7857 70.7828 90 60.6087 90 50C90 39.3913 85.7857 29.2172 78.2843 21.7157C70.7828 14.2143 60.6087 10 50 10Z" fill="#C0C0C0"/>
<path d="M35 75H34V76H35V75ZM35 65V64H34V65H35ZM55 65V66H56V65H55ZM55 55H56V54H55V55ZM45 55H44V56H45V55ZM45 45V44H44V45H45ZM55 45V46H56V45H55ZM55 35H56V34H55V35ZM35 35H34V36H35V35ZM35 25V24H34V25H35ZM55 25V24V25ZM65 42.5H66H65ZM65 57.5H66H65ZM100 50H101H100ZM0 50H-1H0ZM10 50H9H10ZM50 90V91V90ZM90 50H91H90ZM64 65C64 67.3869 63.0518 69.6761 61.364 71.364L62.7782 72.7782C64.8411 70.7153 66 67.9174 66 65H64ZM61.364 71.364C59.6761 73.0518 57.3869 74 55 74V76C57.9174 76 60.7153 74.8411 62.7782 72.7782L61.364 71.364ZM55 74H35V76H55V74ZM36 75V65H34V75H36ZM35 66H55V64H35V66ZM56 65V55H54V65H56ZM55 54H45V56H55V54ZM46 55V45H44V55H46ZM45 46H55V44H45V46ZM56 45V35H54V45H56ZM55 34H35V36H55V34ZM36 35V25H34V35H36ZM35 26H55V24H35V26ZM55 26C57.3869 26 59.6761 26.9482 61.364 28.636L62.7782 27.2218C60.7153 25.1589 57.9174 24 55 24V26ZM61.364 28.636C63.0518 30.3239 64 32.6131 64 35H66C66 32.0826 64.8411 29.2847 62.7782 27.2218L61.364 28.636ZM64 35V42.5H66V35H64ZM64 42.5C64 44.2239 63.3152 45.8772 62.0962 47.0962L63.5104 48.5104C65.1045 46.9163 66 44.7543 66 42.5H64ZM62.0962 47.0962C60.8772 48.3152 59.2239 49 57.5 49V51C59.7543 51 61.9163 50.1045 63.5104 48.5104L62.0962 47.0962ZM57.5 51C59.2239 51 60.8772 51.6848 62.0962 52.9038L63.5104 51.4896C61.9163 49.8955 59.7543 49 57.5 49V51ZM62.0962 52.9038C63.3152 54.1228 64 55.7761 64 57.5H66C66 55.2457 65.1045 53.0837 63.5104 51.4896L62.0962 52.9038ZM64 57.5V65H66V57.5H64ZM50 1C56.4348 1 62.8065 2.26742 68.7515 4.7299L69.5169 2.88214C63.3293 0.319154 56.6974 -1 50 -1V1ZM68.7515 4.7299C74.6964 7.19238 80.0982 10.8017 84.6482 15.3518L86.0624 13.9376C81.3267 9.20177 75.7045 5.44513 69.5169 2.88214L68.7515 4.7299ZM84.6482 15.3518C89.1983 19.9018 92.8076 25.3036 95.2701 31.2485L97.1179 30.4831C94.5549 24.2955 90.7982 18.6733 86.0624 13.9376L84.6482 15.3518ZM95.2701 31.2485C97.7326 37.1935 99 43.5652 99 50H101C101 43.3026 99.6809 36.6707 97.1179 30.4831L95.2701 31.2485ZM99 50C99 62.9956 93.8375 75.4589 84.6482 84.6482L86.0624 86.0624C95.6268 76.4981 101 63.526 101 50H99ZM84.6482 84.6482C75.4589 93.8375 62.9956 99 50 99V101C63.526 101 76.4981 95.6268 86.0624 86.0624L84.6482 84.6482ZM50 99C43.5652 99 37.1935 97.7326 31.2485 95.2701L30.4831 97.1179C36.6707 99.6809 43.3026 101 50 101V99ZM31.2485 95.2701C25.3036 92.8076 19.9018 89.1983 15.3518 84.6482L13.9376 86.0624C18.6733 90.7982 24.2955 94.5549 30.4831 97.1179L31.2485 95.2701ZM15.3518 84.6482C6.16248 75.4589 1 62.9956 1 50H-1C-1 63.526 4.3732 76.4981 13.9376 86.0624L15.3518 84.6482ZM1 50C1 37.0044 6.16248 24.5411 15.3518 15.3518L13.9376 13.9376C4.3732 23.5019 -1 36.474 -1 50H1ZM15.3518 15.3518C24.5411 6.16248 37.0044 1 50 1V-1C36.474 -1 23.5019 4.3732 13.9376 13.9376L15.3518 15.3518ZM50 9C39.1261 9 28.6976 13.3196 21.0086 21.0086L22.4228 22.4228C29.7368 15.1089 39.6566 11 50 11V9ZM21.0086 21.0086C13.3196 28.6976 9 39.1261 9 50H11C11 39.6566 15.1089 29.7368 22.4228 22.4228L21.0086 21.0086ZM9 50C9 60.8739 13.3196 71.3024 21.0086 78.9914L22.4228 77.5772C15.1089 70.2632 11 60.3434 11 50H9ZM21.0086 78.9914C28.6976 86.6804 39.1261 91 50 91V89C39.6566 89 29.7368 84.8911 22.4228 77.5772L21.0086 78.9914ZM50 91C60.8739 91 71.3024 86.6804 78.9914 78.9914L77.5772 77.5772C70.2632 84.8911 60.3434 89 50 89V91ZM78.9914 78.9914C86.6804 71.3024 91 60.8739 91 50H89C89 60.3434 84.8911 70.2632 77.5772 77.5772L78.9914 78.9914ZM91 50C91 39.1261 86.6804 28.6976 78.9914 21.0086L77.5772 22.4228C84.8911 29.7368 89 39.6566 89 50H91ZM78.9914 21.0086C71.3024 13.3196 60.8739 9 50 9V11C60.3434 11 70.2632 15.1089 77.5772 22.4228L78.9914 21.0086Z" fill="#0D4278"/>
</g>
</svg>
