<svg width="100" height="100" viewBox="0 0 100 100" fill="none" xmlns="http://www.w3.org/2000/svg">
<path d="M50 100C77.6142 100 100 77.6142 100 50C100 22.3858 77.6142 0 50 0C22.3858 0 0 22.3858 0 50C0 77.6142 22.3858 100 50 100Z" fill="#0D4278"/>
<path d="M83 47.6667V26.5L70.9088 31.6133C71.285 33.0133 70.9088 34.46 70.9088 36C70.9088 40.6667 63 54 50 54C35.5 54 29.0912 41.5 29.0912 31.6133L13 24L50 8L87 24L87.625 47.6667H83ZM50 40L34 34C34 38.6667 41 49.5 50 49.5C59 49.5 66 39.1333 66 34L50 40ZM75 24L50 15L26.5 24L50 33L75 24ZM50 60C80 60 93 77.54 93 90H86H50H14H7C7 77.54 20 60 50 60ZM50 67C20 67 14 87.0133 14 90H50H86C86 87.0133 80 67 50 67Z" fill="#DBE4ED"/>
</svg>
