<svg width="100" height="100" viewBox="0 0 100 100" fill="none" xmlns="http://www.w3.org/2000/svg">
<path d="M30.4236 59.5L25.6829 31.0562L39.7226 40.416L40.1387 40.6934L40.416 40.2774L50 25.9014L59.584 40.2774L59.8613 40.6934L60.2774 40.416L74.3171 31.0562L69.5764 59.5H30.4236ZM0.5 50C0.5 22.7752 22.6271 0.5 50 0.5C77.2239 0.5 99.5 22.7761 99.5 50C99.5 77.2239 77.2239 99.5 50 99.5C22.7761 99.5 0.5 77.2239 0.5 50ZM9.5 50C9.5 72.3761 27.6239 90.5 50 90.5C72.3761 90.5 90.5 72.3761 90.5 50C90.5 27.6239 72.3761 9.5 50 9.5C27.6239 9.5 9.5 27.6239 9.5 50ZM32.8 69.5C32.0598 69.5 31.4948 69.2627 31.1161 68.8839C30.7373 68.5052 30.5 67.9401 30.5 67.2V65.5H69.5V67.2C69.5 67.9401 69.2627 68.5052 68.8839 68.8839C68.5052 69.2627 67.9401 69.5 67.2 69.5H32.8Z" fill="#FFC000" stroke="#0D4278"/>
</svg>
