<svg width="100" height="100" viewBox="0 0 100 100" fill="none" xmlns="http://www.w3.org/2000/svg">
<mask id="mask0_627_405" style="mask-type:alpha" maskUnits="userSpaceOnUse" x="0" y="0" width="100" height="100">
<path d="M35 25H55C57.6522 25 60.1957 26.0536 62.0711 27.9289C63.9464 29.8043 65 32.3478 65 35V45C65 47.6522 63.9464 50.1957 62.0711 52.0711C60.1957 53.9464 57.6522 55 55 55H45V65H65V75H45H35V55C35 52.3478 36.0536 49.8043 37.9289 47.9289C39.8043 46.0536 42.3478 45 45 45H55V35H35V25ZM50 0C56.5661 0 63.0679 1.29329 69.1342 3.80602C75.2005 6.31876 80.7124 10.0017 85.3553 14.6447C89.9983 19.2876 93.6812 24.7995 96.194 30.8658C98.7067 36.9321 100 43.4339 100 50C100 63.2608 94.7322 75.9785 85.3553 85.3553C75.9785 94.7322 63.2608 100 50 100C43.4339 100 36.9321 98.7067 30.8658 96.194C24.7995 93.6812 19.2876 89.9983 14.6447 85.3553C5.26784 75.9785 0 63.2608 0 50C0 36.7392 5.26784 24.0215 14.6447 14.6447C24.0215 5.26784 36.7392 0 50 0ZM50 10C39.3913 10 29.2172 14.2143 21.7157 21.7157C14.2143 29.2172 10 39.3913 10 50C10 60.6087 14.2143 70.7828 21.7157 78.2843C29.2172 85.7857 39.3913 90 50 90C60.6087 90 70.7828 85.7857 78.2843 78.2843C85.7857 70.7828 90 60.6087 90 50C90 39.3913 85.7857 29.2172 78.2843 21.7157C70.7828 14.2143 60.6087 10 50 10Z" fill="white"/>
</mask>
<g mask="url(#mask0_627_405)">
<path d="M35 25H55C57.6522 25 60.1957 26.0536 62.0711 27.9289C63.9464 29.8043 65 32.3478 65 35V45C65 47.6522 63.9464 50.1957 62.0711 52.0711C60.1957 53.9464 57.6522 55 55 55H45V65H65V75H45H35V55C35 52.3478 36.0536 49.8043 37.9289 47.9289C39.8043 46.0536 42.3478 45 45 45H55V35H35V25ZM50 0C56.5661 0 63.0679 1.29329 69.1342 3.80602C75.2005 6.31876 80.7124 10.0017 85.3553 14.6447C89.9983 19.2876 93.6812 24.7995 96.194 30.8658C98.7067 36.9321 100 43.4339 100 50C100 63.2608 94.7322 75.9785 85.3553 85.3553C75.9785 94.7322 63.2608 100 50 100C43.4339 100 36.9321 98.7067 30.8658 96.194C24.7995 93.6812 19.2876 89.9983 14.6447 85.3553C5.26784 75.9785 0 63.2608 0 50C0 36.7392 5.26784 24.0215 14.6447 14.6447C24.0215 5.26784 36.7392 0 50 0ZM50 10C39.3913 10 29.2172 14.2143 21.7157 21.7157C14.2143 29.2172 10 39.3913 10 50C10 60.6087 14.2143 70.7828 21.7157 78.2843C29.2172 85.7857 39.3913 90 50 90C60.6087 90 70.7828 85.7857 78.2843 78.2843C85.7857 70.7828 90 60.6087 90 50C90 39.3913 85.7857 29.2172 78.2843 21.7157C70.7828 14.2143 60.6087 10 50 10Z" fill="#CD7F32"/>
<path d="M35 25V24H34V25H35ZM55 25V24V25ZM45 55V54H44V55H45ZM45 65H44V66H45V65ZM65 65H66V64H65V65ZM65 75V76H66V75H65ZM35 75H34V76H35V75ZM45 45V46V45ZM55 45V46H56V45H55ZM55 35H56V34H55V35ZM35 35H34V36H35V35ZM100 50H101H100ZM0 50H-1H0ZM10 50H9H10ZM50 90V91V90ZM90 50H91H90ZM35 26H55V24H35V26ZM55 26C57.3869 26 59.6761 26.9482 61.364 28.636L62.7782 27.2218C60.7153 25.1589 57.9174 24 55 24V26ZM61.364 28.636C63.0518 30.3239 64 32.6131 64 35H66C66 32.0826 64.8411 29.2847 62.7782 27.2218L61.364 28.636ZM64 35V45H66V35H64ZM64 45C64 47.3869 63.0518 49.6761 61.364 51.364L62.7782 52.7782C64.8411 50.7153 66 47.9174 66 45H64ZM61.364 51.364C59.6761 53.0518 57.3869 54 55 54V56C57.9174 56 60.7153 54.8411 62.7782 52.7782L61.364 51.364ZM55 54H45V56H55V54ZM44 55V65H46V55H44ZM45 66H65V64H45V66ZM64 65V75H66V65H64ZM65 74H45V76H65V74ZM45 74H35V76H45V74ZM36 75V55H34V75H36ZM36 55C36 52.6131 36.9482 50.3239 38.636 48.636L37.2218 47.2218C35.1589 49.2847 34 52.0826 34 55H36ZM38.636 48.636C40.3239 46.9482 42.6131 46 45 46V44C42.0826 44 39.2847 45.1589 37.2218 47.2218L38.636 48.636ZM45 46H55V44H45V46ZM56 45V35H54V45H56ZM55 34H35V36H55V34ZM36 35V25H34V35H36ZM50 1C56.4348 1 62.8065 2.26742 68.7515 4.7299L69.5169 2.88214C63.3293 0.319154 56.6974 -1 50 -1V1ZM68.7515 4.7299C74.6964 7.19238 80.0982 10.8017 84.6482 15.3518L86.0624 13.9376C81.3267 9.20177 75.7045 5.44513 69.5169 2.88214L68.7515 4.7299ZM84.6482 15.3518C89.1983 19.9018 92.8076 25.3036 95.2701 31.2485L97.1179 30.4831C94.5549 24.2955 90.7982 18.6733 86.0624 13.9376L84.6482 15.3518ZM95.2701 31.2485C97.7326 37.1935 99 43.5652 99 50H101C101 43.3026 99.6809 36.6707 97.1179 30.4831L95.2701 31.2485ZM99 50C99 62.9956 93.8375 75.4589 84.6482 84.6482L86.0624 86.0624C95.6268 76.4981 101 63.526 101 50H99ZM84.6482 84.6482C75.4589 93.8375 62.9956 99 50 99V101C63.526 101 76.4981 95.6268 86.0624 86.0624L84.6482 84.6482ZM50 99C43.5652 99 37.1935 97.7326 31.2485 95.2701L30.4831 97.1179C36.6707 99.6809 43.3026 101 50 101V99ZM31.2485 95.2701C25.3036 92.8076 19.9018 89.1983 15.3518 84.6482L13.9376 86.0624C18.6733 90.7982 24.2955 94.5549 30.4831 97.1179L31.2485 95.2701ZM15.3518 84.6482C6.16248 75.4589 1 62.9956 1 50H-1C-1 63.526 4.3732 76.4981 13.9376 86.0624L15.3518 84.6482ZM1 50C1 37.0044 6.16248 24.5411 15.3518 15.3518L13.9376 13.9376C4.3732 23.5019 -1 36.474 -1 50H1ZM15.3518 15.3518C24.5411 6.16248 37.0044 1 50 1V-1C36.474 -1 23.5019 4.3732 13.9376 13.9376L15.3518 15.3518ZM50 9C39.1261 9 28.6976 13.3196 21.0086 21.0086L22.4228 22.4228C29.7368 15.1089 39.6566 11 50 11V9ZM21.0086 21.0086C13.3196 28.6976 9 39.1261 9 50H11C11 39.6566 15.1089 29.7368 22.4228 22.4228L21.0086 21.0086ZM9 50C9 60.8739 13.3196 71.3024 21.0086 78.9914L22.4228 77.5772C15.1089 70.2632 11 60.3434 11 50H9ZM21.0086 78.9914C28.6976 86.6804 39.1261 91 50 91V89C39.6566 89 29.7368 84.8911 22.4228 77.5772L21.0086 78.9914ZM50 91C60.8739 91 71.3024 86.6804 78.9914 78.9914L77.5772 77.5772C70.2632 84.8911 60.3434 89 50 89V91ZM78.9914 78.9914C86.6804 71.3024 91 60.8739 91 50H89C89 60.3434 84.8911 70.2632 77.5772 77.5772L78.9914 78.9914ZM91 50C91 39.1261 86.6804 28.6976 78.9914 21.0086L77.5772 22.4228C84.8911 29.7368 89 39.6566 89 50H91ZM78.9914 21.0086C71.3024 13.3196 60.8739 9 50 9V11C60.3434 11 70.2632 15.1089 77.5772 22.4228L78.9914 21.0086Z" fill="#0D4278"/>
</g>
</svg>
